<?xml version="1.0" encoding="utf-8"?>
<!-- Generator: Adobe Illustrator 16.0.0, SVG Export Plug-In . SVG Version: 6.00 Build 0)  -->
<!DOCTYPE svg PUBLIC "-//W3C//DTD SVG 1.1//EN" "http://www.w3.org/Graphics/SVG/1.1/DTD/svg11.dtd">
<svg version="1.1" id="Layer_1" xmlns="http://www.w3.org/2000/svg" xmlns:xlink="http://www.w3.org/1999/xlink" x="0px" y="0px"
	 width="200px" height="200px" viewBox="0 0 200 200" enable-background="new 0 0 200 200" xml:space="preserve">
<rect x="9" y="11" fill="none" width="180" height="179"/>
<g>
	<path fill="#30BBDF" d="M101.5,175.4c-42.1,0-76.4-34.301-76.4-76.4c0-42.1,34.3-76.4,76.4-76.4c42.1,0,76.4,34.3,76.4,76.4
		C177.9,141.1,143.6,175.4,101.5,175.4z"/>
	<path d="M101.5,30.6c37.7,0,68.4,30.7,68.4,68.4s-30.7,68.4-68.4,68.4S33.1,136.7,33.1,99S63.8,30.6,101.5,30.6 M101.5,14.6
		c-46.6,0-84.4,37.8-84.4,84.4c0,46.6,37.8,84.4,84.4,84.4c46.6,0,84.4-37.801,84.4-84.4C185.9,52.4,148.1,14.6,101.5,14.6
		L101.5,14.6z"/>
</g>
<path fill="none" stroke="#000000" stroke-width="16" stroke-linecap="round" stroke-linejoin="round" stroke-miterlimit="10" d="
	M150.3,104.1c0,23.4-22.8,42.301-50.8,42.301"/>
<path fill="#FFFFFF" stroke="#30BBDF" stroke-width="16" stroke-linejoin="round" stroke-miterlimit="10" d="M99.5,175.3
	c-42.2,0-76.4-34.2-76.4-76.4s34.2-76.4,76.4-76.4"/>
<circle cx="125" cy="73.1" r="14.5"/>
<text transform="matrix(1 0 0 1 43.4873 138)" font-family="'ArialRoundedMTBold'" font-size="120">r</text>
</svg>
