<?xml version="1.0" encoding="utf-8"?>
<!-- Generator: Adobe Illustrator 16.0.0, SVG Export Plug-In . SVG Version: 6.00 Build 0)  -->
<!DOCTYPE svg PUBLIC "-//W3C//DTD SVG 1.1//EN" "http://www.w3.org/Graphics/SVG/1.1/DTD/svg11.dtd">
<svg version="1.1" id="Layer_1" xmlns="http://www.w3.org/2000/svg" xmlns:xlink="http://www.w3.org/1999/xlink" x="0px" y="0px"
	 width="200px" height="200px" viewBox="0 0 200 200" enable-background="new 0 0 200 200" xml:space="preserve">
<pattern  x="-380" y="-180" width="72" height="72" patternUnits="userSpaceOnUse" id="_x36__lpi_60_x25_" viewBox="72.2 -72 72 72" overflow="visible">
	<g>
		<polygon fill="none" points="72.2,-72 144.2,-72 144.2,0 72.2,0 		"/>
		<g>
			<line fill="none" stroke="#231F20" stroke-width="7.2" x1="144" y1="-6" x2="216.5" y2="-6"/>
			<line fill="none" stroke="#231F20" stroke-width="7.2" x1="144" y1="-30" x2="216.5" y2="-30"/>
			<line fill="none" stroke="#231F20" stroke-width="7.2" x1="144" y1="-54" x2="216.5" y2="-54"/>
			<line fill="none" stroke="#231F20" stroke-width="7.2" x1="144" y1="-18" x2="216.5" y2="-18"/>
			<line fill="none" stroke="#231F20" stroke-width="7.2" x1="144" y1="-42" x2="216.5" y2="-42"/>
			<line fill="none" stroke="#231F20" stroke-width="7.2" x1="144" y1="-66" x2="216.5" y2="-66"/>
		</g>
		<g>
			<line fill="none" stroke="#231F20" stroke-width="7.2" x1="72" y1="-6" x2="144.5" y2="-6"/>
			<line fill="none" stroke="#231F20" stroke-width="7.2" x1="72" y1="-30" x2="144.5" y2="-30"/>
			<line fill="none" stroke="#231F20" stroke-width="7.2" x1="72" y1="-54" x2="144.5" y2="-54"/>
			<line fill="none" stroke="#231F20" stroke-width="7.2" x1="72" y1="-18" x2="144.5" y2="-18"/>
			<line fill="none" stroke="#231F20" stroke-width="7.2" x1="72" y1="-42" x2="144.5" y2="-42"/>
			<line fill="none" stroke="#231F20" stroke-width="7.2" x1="72" y1="-66" x2="144.5" y2="-66"/>
		</g>
		<g>
			<line fill="none" stroke="#231F20" stroke-width="7.2" x1="0" y1="-6" x2="72.5" y2="-6"/>
			<line fill="none" stroke="#231F20" stroke-width="7.2" x1="0" y1="-30" x2="72.5" y2="-30"/>
			<line fill="none" stroke="#231F20" stroke-width="7.2" x1="0" y1="-54" x2="72.5" y2="-54"/>
			<line fill="none" stroke="#231F20" stroke-width="7.2" x1="0" y1="-18" x2="72.5" y2="-18"/>
			<line fill="none" stroke="#231F20" stroke-width="7.2" x1="0" y1="-42" x2="72.5" y2="-42"/>
			<line fill="none" stroke="#231F20" stroke-width="7.2" x1="0" y1="-66" x2="72.5" y2="-66"/>
		</g>
	</g>
</pattern>
<g>
	
		<pattern  id="SVGID_1_" xlink:href="#_x36__lpi_60_x25_" patternTransform="matrix(0.6582 -0.7668 0.7668 0.6582 3309.3896 -8184.4028)">
	</pattern>
	<path fill="url(#SVGID_1_)" d="M100.7,177.2c-18.4,0-36.3-6.6-50.3-18.7c-32.3-27.8-36.1-76.7-8.3-109c14.7-17.1,36.1-27,58.7-27
		c18.4,0,36.3,6.6,50.3,18.7c15.7,13.5,25.2,32.2,26.7,52.8c1.6,20.6-5,40.6-18.4,56.2C144.7,167.4,123.3,177.2,100.7,177.2z"/>
	<path d="M101,15v15.6c16,0,32.4,5.9,45,16.7c14,12.1,22.5,28.9,23.9,47.3c1.4,18.5-4.5,36.4-16.5,50.4
		c-13.2,15.4-32.4,24.2-52.6,24.2c-16.5,0-32.6-5.9-45.1-16.7c-29-24.9-32.3-68.7-7.4-97.7c13.2-15.4,32.5-24.2,52.7-24.2l0.1-16
		 M100.8,14.6c-24,0-47.9,10.1-64.8,29.7C5.3,80.1,9.4,133.9,45.2,164.6c16.1,13.8,35.9,20.6,55.5,20.6c24,0,47.9-10.1,64.8-29.7
		c30.7-35.7,26.6-89.6-9.2-120.3C140.2,21.4,120.5,14.6,100.8,14.6L100.8,14.6z"/>
</g>
<path fill="#E4644B" stroke="#FFFFFF" stroke-width="16" stroke-linejoin="round" stroke-miterlimit="10" d="M99.1,176.3
	c42.2,0,76.4-34.2,76.4-76.4c0-42.2-34.2-76.4-76.4-76.4"/>
<g>
	<circle fill="#FFFFFF" cx="126" cy="72.1" r="14.5"/>
	<circle fill="#FFFFFF" cx="73.8" cy="72.1" r="14.5"/>
	<path fill="none" stroke="#FFFFFF" stroke-width="16" stroke-linecap="round" stroke-linejoin="round" stroke-miterlimit="10" d="
		M145.7,103c0,25.5-20.7,46.2-46.2,46.2S53.4,128.5,53.4,103"/>
</g>
</svg>
